PathFileType	4	(X/Y/Z)	C:\Users\ebm\Documents\Erivelton\Erivelton2\wc9.trc
DataRate	CameraRate	NumFrames	NumMarkers	Units	OrigDataRate	OrigDataStartFrame	OrigNumFrames
150.00	150.00	      11	28	mm	150.00	1132	      1293
Frame#	Time	IJ			PX			C7			T8			RAC			RAS			RPS			RAI			RPI			RLE			RME			RRS			RUS			R3M			R5M			LAC			LAS			LPS			LAI			LPI			LLE			LME			LRS			LUS			L3M			L5M			RW			LW			V_mid_elbow_r			V_mid_elbow_l			V_mid_wrist_r			V_mid_wrist_l			V_mid_trunk_low			V_mid_trunk_upp			
		X1	Y1	Z1	X2	Y2	Z2	X3	Y3	Z3	X4	Y4	Z4	X5	Y5	Z5	X6	Y6	Z6	X7	Y7	Z7	X8	Y8	Z8	X9	Y9	Z9	X10	Y10	Z10	X11	Y11	Z11	X12	Y12	Z12	X13	Y13	Z13	X14	Y14	Z14	X15	Y15	Z15	X16	Y16	Z16	X17	Y17	Z17	X18	Y18	Z18	X19	Y19	Z19	X20	Y20	Z20	X21	Y21	Z21	X22	Y22	Z22	X23	Y23	Z23	X24	Y24	Z24	X25	Y25	Z25	X26	Y26	Z26	X27	Y27	Z27	X28	Y28	Z28	

1132	7.540	3798.23438	1029.47095	547.57306	3804.08472	861.11249	545.63275	3679.60815	1135.31885	513.99097	3601.87280	986.24121	484.02393	3669.72632	1049.52148	721.97150	3748.49609	864.04156	738.28357	3702.14502	846.21930	749.41321	3784.06201	794.16016	737.77271	3735.60107	772.48779	749.93066	3779.44995	717.39325	741.47827				4027.03174	732.29626	616.16119	4023.01440	707.33289	674.15985	4108.97412	702.98969	640.83728	4091.93115	688.61505	674.43109	3768.98047	1095.70374	348.52820	3832.80811	940.06354	272.27661	3789.02246	920.79559	260.45776	3873.71655	871.24664	260.30310	3826.22168	846.44318	247.26984	3904.94165	786.75055	247.37947	3852.08594	748.63196	283.84991	4076.07813	722.01965	446.96387	4098.81055	695.80219	391.75446	4162.30225	690.56836	439.47113	4145.45264	672.50348	403.22397	3655.66089	295.19699	811.96246	3792.87061	294.02298	197.25531	
1133	7.547	3804.55957	1029.50549	548.77637	3810.51880	861.28729	547.12659	3686.40503	1135.51416	514.72394	3608.35010	986.26410	485.21848	3675.97778	1049.73303	723.10382	3754.71753	864.32910	739.62915	3708.54785	846.52191	750.96600	3790.36938	794.43640	739.45386	3741.81079	772.70862	751.63501	3785.55225	717.57269	743.25214				4033.06665	732.07684	617.75867	4028.65088	706.96808	675.57495	4114.99854	702.71655	642.44690	4098.02734	688.46167	676.09601	3775.53955	1095.68103	349.70743	3839.09985	939.65912	273.81592	3795.49609	920.41058	262.06290	3879.87085	870.72772	262.23782	3832.44604	845.93433	249.26453	3910.91992	786.22351	249.55710	3857.94800	748.27179	286.13016	4082.65820	721.94940	448.66397	4105.21631	695.69373	393.55411	4168.89502	690.50641	441.23276	4151.95410	672.45306	405.04437	3661.57227	295.10498	813.15527	3799.17822	294.04175	198.54552	
1134	7.553	3811.12012	1029.65515	550.07410	3816.65234	861.11511	548.32263	3692.47046	1135.71997	516.29449	3614.69336	986.30096	486.34323	3682.33813	1049.93127	724.24017	3760.92700	864.45258	741.15375	3714.97534	846.92413	752.53162	3796.38062	794.60474	741.11438	3748.18311	772.88385	753.32880	3791.72754	717.79565	745.07184				4039.12476	731.75970	619.41772	4034.73022	706.81470	677.23621	4121.03467	702.48798	644.10370	4104.06396	688.16425	677.80280	3781.93994	1095.64001	350.97690	3845.30054	939.23761	275.33966	3801.60986	919.93073	263.71936	3886.07153	870.10498	264.15204	3838.63892	845.33441	251.28871	3916.76538	785.47296	251.49631	3863.82324	747.81293	288.51379	4089.16528	721.79321	450.52133	4111.66309	695.59576	395.28159	4175.19336	690.35992	443.00769	4158.54883	672.39838	406.69373	3667.60596	294.97583	814.44226	3805.43506	294.01666	199.89630	
1135	7.560	3817.36841	1029.70679	551.21173	3823.08569	861.34070	549.65973	3698.55811	1135.15991	517.35242	3621.08618	986.23523	487.48965	3688.58716	1050.12207	725.40570	3767.14697	864.70203	742.58704	3720.70020	847.12189	753.97687	3802.75391	794.93335	742.92419	3754.48828	773.24518	755.09082	3797.93848	717.96240	747.14282				4045.20215	731.61761	621.06085	4040.85352	706.68042	678.98260	4127.16406	702.41693	645.73480	4110.12695	688.03967	679.53864	3788.35278	1095.46130	352.04935	3851.61475	938.70557	276.94455	3807.88501	919.47015	265.40472	3892.28516	869.54437	266.07422	3844.66870	844.71912	253.29436	3922.76929	784.81915	253.67238	3869.90625	747.32507	291.17096	4095.63867	721.70544	452.34064	4117.98389	695.48096	396.99649	4181.55371	690.18884	444.80563	4164.80420	672.32501	408.48596	3673.68726	294.94904	815.71088	3811.75854	293.99356	201.42101	
1136	7.567	3823.74268	1029.72083	552.43286	3829.20264	861.18024	551.09033	3704.78345	1135.22363	518.39044	3627.45264	986.26563	488.61633	3694.82910	1050.36145	726.48584	3773.43750	865.00067	744.05621	3727.59351	847.57208	755.69604	3809.30469	795.42389	744.62616	3760.68066	773.56561	756.95398	3804.08496	718.43640	748.79706				4051.01172	731.17621	622.50665	4046.99170	706.60168	680.56732	4133.23145	702.49835	647.39740	4116.35742	688.10815	681.09235	3794.83716	1095.37976	353.20847	3858.02661	938.24823	278.57339	3814.09839	919.02631	267.02792	3898.43188	868.90936	267.98636	3850.99487	844.19910	255.30751	3928.72974	784.04846	255.81096	3876.11108	746.91016	293.67468	4102.15381	721.63312	454.28082	4124.47656	695.44354	398.92340	4188.25244	690.03809	446.46936	4171.38623	672.28650	410.21692	3679.63208	295.01288	816.96600	3817.83252	294.03183	202.61650	
1137	7.573	3829.97827	1029.71606	553.58160	3835.62549	861.11481	552.59735	3711.33008	1135.21655	519.37054	3633.88647	986.27313	489.84836	3701.12134	1050.52612	727.63812	3779.72290	865.29095	745.62024	3733.85352	847.79932	757.27203	3815.14941	795.47369	746.38025	3766.86084	773.85199	758.82617	3810.29663	718.67798	750.65857				4057.22656	731.19208	624.30475	4053.15308	706.53162	682.32971	4139.32861	702.35089	649.08783	4122.40527	687.90143	682.69153	3801.42944	1095.24426	354.31757	3864.32275	937.68884	280.12009	3820.56592	918.51874	268.73779	3904.64355	868.21387	269.84351	3856.96582	843.53888	257.24667	3934.65991	783.29279	257.96658	3882.06299	746.41321	296.19849	4108.54102	721.41394	456.21387	4130.61670	695.16443	400.75519	4194.64160	689.92139	448.15338	4177.79150	672.22565	411.89438	3685.59521	294.81323	818.30371	3824.14160	293.97699	204.12347	
1138	7.580	3836.41968	1029.76428	554.79303	3841.99487	861.24988	553.97900	3717.89453	1135.38013	520.23566	3640.27222	986.34357	490.93094	3707.38330	1050.78882	728.71680	3785.96240	865.61456	747.19849	3740.00806	848.21082	758.90845	3821.81177	795.94202	748.28345	3773.17480	774.29926	760.61279	3816.56152	718.85089	753.08057				4063.21021	730.99371	625.92926	4059.18408	706.45819	683.99744	4145.23975	702.17896	650.71344	4128.38525	687.82092	684.46344	3807.86206	1095.06384	355.50296	3870.55151	937.10809	281.77020	3826.70825	918.01837	270.30322	3910.74170	867.55060	271.72260	3863.16309	842.91650	259.18509	3940.53149	782.48352	260.11761	3887.73657	745.98743	298.42194	4115.05420	721.43713	458.14713	4136.98584	695.10632	402.67319	4201.09912	689.87701	449.90643	4184.22803	672.25336	413.64835	3691.66797	294.83945	819.58044	3830.35278	294.00797	205.47852	
1139	7.587	3842.70630	1029.80957	555.98969	3848.20703	861.11005	555.25366	3723.95947	1135.16235	521.60938	3646.64478	986.28986	492.06241	3713.70093	1050.96277	729.86707	3792.19946	865.79993	748.67700	3746.31421	848.55548	760.53900	3829.01880	796.80273	750.49707	3779.31079	774.54443	762.56647	3822.73242	719.09338	755.18719				4069.40576	731.04492	627.56140	4065.43408	706.47754	685.77301	4151.43506	702.21344	652.47955	4134.45361	687.64319	686.26508	3814.28296	1094.85901	356.68878	3876.83569	936.57086	283.24991	3832.91211	917.44067	271.93796	3917.01807	866.95123	273.55765	3869.24121	842.33911	261.11066	3946.52759	781.70923	262.09149	3893.60181	745.46564	300.80725	4121.31152	721.24048	460.15723	4143.31689	695.04846	404.52008	4207.72559	689.69641	451.72763	4190.58008	672.23395	415.32791	3697.61499	294.87134	820.97192	3836.54224	293.99738	206.84314	
1140	7.593	3849.07690	1029.78943	557.17719	3854.43530	861.01141	556.54059	3730.16235	1135.13000	522.67291	3652.96338	986.25757	493.32202	3719.98193	1051.14453	730.96466	3798.43091	866.00781	750.33191	3752.45337	848.72150	762.14325	3835.14160	796.98053	752.40411	3785.46802	774.75348	764.40216	3828.84229	719.29657	757.20551				4075.55029	730.97809	629.31158	4071.42310	706.40570	687.51202	4157.36572	701.96753	654.05640	4140.51123	687.54688	687.95477	3820.86279	1094.69495	358.01953	3883.19287	935.92804	284.82782	3839.06104	916.91724	273.52039	3923.03687	866.17682	275.33551	3875.33813	841.60504	263.09390	3952.52295	781.01941	264.20285	3899.72656	744.91797	303.32001	4127.80273	721.19208	462.11597	4149.44434	695.16443	406.60519	4213.98584	689.70209	453.53360	4196.97754	672.34271	417.25934	3703.57715	294.80310	822.36670	3842.70190	293.97092	208.27678	
1141	7.600	3855.54224	1029.81177	558.35803	3860.84692	861.12250	557.83521	3736.76563	1135.10876	523.71460	3659.44604	986.32935	494.47540	3726.22241	1051.33557	732.03522	3804.59814	866.25549	751.80536	3758.69092	849.17230	763.82996	3841.21411	797.15851	754.01758	3791.65527	775.10883	766.32196	3835.04980	719.64673	759.26904				4081.47241	730.84528	631.00061	4077.49536	706.35895	689.24237	4163.44629	702.10303	655.75934	4146.58398	687.49188	689.57898	3827.33862	1094.48792	358.95355	3889.32959	935.36682	286.32483	3845.43188	916.35706	275.09460	3929.29565	865.55237	277.20447	3881.44531	841.02838	264.93405	3958.47144	780.28339	266.12674	3906.17993	744.46057	305.68784	4134.00537	720.95166	464.07736				4220.73779	689.66602	455.30005	4203.27979	672.43713	419.06271	3709.57373	294.82208	823.69861	3849.04712	294.00638	209.70952	
1142	7.607	3861.91260	1029.80652	559.56128	3867.15381	861.01599	559.52576	3743.08862	1135.02661	524.87897	3665.83105	986.23071	495.74426	3732.54492	1051.45679	733.17194	3810.90845	866.55420	753.43652	3765.00391	849.48792	765.51147	3847.39185	797.42108	755.91321	3797.92285	775.38251	768.28485	3841.20361	719.82324	761.33868				4087.55420	730.80682	632.89111	4083.67407	706.37573	691.09857	4169.56250	701.80951	657.44055	4152.56250	687.35248	691.19672	3833.69580	1094.26013	360.33145	3895.65771	934.85504	287.84253	3851.66675	915.81012	276.68912	3935.50098	864.96417	278.97675	3887.62793	840.39825	266.79886	3964.56860	779.52679	268.15146	3912.30688	743.91571	307.95303	4140.32715	720.83002	465.81738				4226.89160	689.86139	457.35190	4209.75244	672.38068	420.88858	3715.51660	294.71234	825.09308	3855.34326	294.04398	211.00104	
